<svg width="400" height="400" viewBox="0 0 400 400" fill="none" xmlns="http://www.w3.org/2000/svg">
<circle cx="200" cy="200" r="200" fill="url(#paint0_linear_13_73)"/>
<path d="M200 200C234.518 200 262.5 172.018 262.5 137.5C262.5 102.982 234.518 75 200 75C165.482 75 137.5 102.982 137.5 137.5C137.5 172.018 165.482 200 200 200ZM241.667 137.5C241.667 160.512 223.012 179.167 200 179.167C176.988 179.167 158.333 160.512 158.333 137.5C158.333 114.488 176.988 95.8333 200 95.8333C223.012 95.8333 241.667 114.488 241.667 137.5Z" fill="white"/>
<path d="M325 304.167C325 325 304.167 325 304.167 325H95.8333C95.8333 325 75 325 75 304.167C75 283.333 95.8333 220.833 200 220.833C304.167 220.833 325 283.333 325 304.167ZM304.166 304.094C304.137 298.953 300.963 283.551 286.831 269.419C273.242 255.83 247.69 241.667 200 241.667C152.31 241.667 126.757 255.83 113.169 269.419C99.0366 283.551 95.863 298.953 95.8333 304.094H304.166Z" fill="white"/>
<defs>
<linearGradient id="paint0_linear_13_73" x1="400" y1="0" x2="0" y2="400" gradientUnits="userSpaceOnUse">
<stop stop-color="#9F8C45"/>
<stop offset="1" stop-color="#455E9F"/>
</linearGradient>
</defs>
</svg>
